<?xml version="1.0" encoding="UTF-8" standalone="no"?> <svg xmlns="http://www.w3.org/2000/svg" xmlns:svg="http://www.w3.org/2000/svg" viewBox="0 0 512 512" version="1.1" id="svg2" width="512" height="512"><defs id="defs2"></defs><g id="g4" transform="matrix(1.3703334,0,0,1.3673528,-17.814334,-10.308142)" style="display:inline;opacity:1"><path d="m 92.8,7.8 c -26.1,3.3 -43.6,27.7 -38.1,53.1 0.4,2 33.3,129.5 33.8,131 0.2,0.5 5.6,3 6.5,3 0.2,0 39.7,-22.5 40,-22.8 0,-0.1 -6.4,-22.5 -14.2,-50 -15,-52.2 -15.1,-52.6 -13.7,-55.3 1.5,-2.8 4.9,-4.6 7.8,-4.3 2.7,0.3 0.9,-0.7 53.6,32.7 26.2,16.6 47.7,30.1 47.9,30 0.2,-0.1 9,-5.1 19.7,-11.2 L 255.5,102.9 255.4,99 255.3,95.1 188.1,54.7 C 151.1,32.5 119.8,13.7 118.5,13 110.3,8.7 100.7,6.8 92.7,7.8 m 186.7,197.8 c -12.3,7.2 -19.5,11.6 -19.4,12 0.1,0.3 6.6,22.7 14.6,49.8 15.9,54.2 15.5,52.5 13.5,55.6 -2.1,3.2 -5.7,4.6 -8.9,3.5 -0.9,-0.3 -24,-14.3 -51,-31.2 l -49.3,-30.7 -6.1,3.6 c -3.4,1.9 -12.2,7.1 -19.6,11.4 l -13.5,7.9 v 3.8 3.8 l 67.4,40 c 68,40.4 71.8,42.6 76.7,44.4 23.6,8.5 50.2,-5.6 56.9,-30.2 1.1,-4 0.3,-16.3 -0.6,-20.5 -0.3,-1.3 -8.1,-30.9 -17.3,-65.8 -9.2,-34.9 -16.9,-64.1 -17.1,-64.9 -0.4,-1.5 -4.8,-3.9 -6.9,-3.8 -0.4,0 -9.5,5.2 -20.2,11.5" fill="#04040c" fill-rule="evenodd" id="path3"></path><path d="m 177,168.3 -163.1,94.8 -0.2,1.7 c -0.1,1 -0.3,3.4 -0.4,5.5 L 13,274 35.7,293.7 c 12.5,10.9 23,19.7 23.4,19.7 0.5,0 325.7,-188.7 326.6,-189.4 0.3,-0.2 1.1,-10.6 0.9,-10.8 -1.8,-1.8 -45.7,-39.8 -46,-39.7 -0.2,0 -73.6,42.7 -163.3,94.8" fill="#04347c" fill-rule="evenodd" id="path4" style="display:inline"></path></g></svg> 